# xmcd
#
# Track frame offsets:
#	150
#	14625
#	29345
#	41932
#	55482
#	69060
#	82172
#	97282
#	111105
#	125060
#	140617
#	154590
#	169030
#	184292
#	197987
#	213955
#	227120
#	240485
#	254020
#	268050
#	280872
#	294735
#	309580
#	323195
#
# Disc length: 4499 seconds
#
# Revision: 0
# Processed by: cddbd v1.4b42PL1 Copyright (c) Steve Scherf et al.
# Submitted via: audiograbber 1.80
#
DISCID=7a119118
DTITLE=Frank Hutchison - Complete Works Volume One
DYEAR=1900
DGENRE=
TTITLE0=Worried Blues
TTITLE1=Train That Carried My Girl From Town
TTITLE2=Stackalee
TTITLE3=The Wild Horse
TTITLE4=Long Way To Tipperary
TTITLE5=The West Virginia Rag
TTITLE6=C&O Excursion
TTITLE7=Coney Isle
TTITLE8=Old Rachel
TTITLE9=Lightning Express
TTITLE10=Stackalee
TTITLE11=Logan County Blues
TTITLE12=Worried Blues
TTITLE13=The Train That Carried My Girl From Town
TTITLE14=The Last Scene Of The Titanic
TTITLE15=All Night Long
TTITLE16=Alabama Girl, Ain't You Coming Out Tonight?
TTITLE17=Hell Bound Train
TTITLE18=Wild Hogs In The Red Brush
TTITLE19=The Burglar Man
TTITLE20=Back In My Home Town
TTITLE21=The Miner's Blues
TTITLE22=Hutchison's Rag
TTITLE23=The Boston Burglar
EXTD=
EXTT0=
EXTT1=
EXTT2=
EXTT3=
EXTT4=
EXTT5=
EXTT6=
EXTT7=
EXTT8=
EXTT9=
EXTT10=
EXTT11=
EXTT12=
EXTT13=
EXTT14=
EXTT15=
EXTT16=
EXTT17=
EXTT18=
EXTT19=
EXTT20=
EXTT21=
EXTT22=
EXTT23=
PLAYORDER=
